<svg xmlns="http://www.w3.org/2000/svg" xmlns:xlink="http://www.w3.org/1999/xlink" version="1.1" x="0px" y="0px" viewBox="-255 347 100 125" style="enable-background:new -255 347 100 100;" xml:space="preserve"><g><path d="M-186.1,398.5l-2,1.9l3.5,1.6l-7.4,3.5l-0.9-0.5l-0.5,0.5l0.6,0.4l-1.9,0.9l-1.1,1.1l3.5-1.7l6.1,3.5   l-8.2,4.1l-4.4-3.1l-0.4,0.4l4,2.8l-6.2-0.7l-0.3,0.3l7.1,0.8l7.2,5.1l-8.6-0.7l-6-4.7l-0.3,0.3l5.3,4.3l-10.3-0.8l-5.9-5.6   l8.5,0.9l-0.1-0.4l-8.9-1l-4.5-4.2l8.9,1.2l4.3,3.5v-0.6l-3.4-2.7l2.8,0.4l-0.1-0.3l-3.2-0.4l-4.2-3.3l6.7,1V406l-7-1.1l-3.6-2.8   l7,1.2l3.4,2.4l-0.1-0.7l-2.6-1.8l1.9-0.8l-0.1-0.4l-2.2,1l-3.3-2.4l4.7-2l-0.1-0.3l-4.9,2.1l-3.1-2.1l6-2.4l1.6,0.9l-0.2-0.6   l-0.9-0.5l0.7-0.3l-0.3-1.2l-8.5,3.4l-14-2.7l-18,9l11.3,38.1l34.1-21.2l21.6,1.3l23-12.8L-186.1,398.5z M-214.6,412.1l-10.2,5.9   l-3.5-4.9l9.4-5.2L-214.6,412.1z M-226.4,400.6l-7.8,4.1l-2-2.8l7.3-3.8L-226.4,400.6z M-228.2,398.1l7.3,1.3l3,2.4l-7.7-1.3   L-228.2,398.1z M-226.2,400.9l3,2.9l-8.5,4.6l-2.4-3.4L-226.2,400.9z M-222.9,404l3.6,3.4l-9.3,5.2l-2.8-4L-222.9,404z    M-209.6,408.5l-8.8-1.2l-3.6-3.4l8.3,1.2L-209.6,408.5z M-214.2,404.8l-8.2-1.2l-3-2.8l7.8,1.3L-214.2,404.8z M-210.3,403.1   l-7-1.2l-3-2.4l6.7,1.2L-210.3,403.1z M-216.9,398.4l3,2.1l-6.6-1.2l-2.7-2.1L-216.9,398.4z M-223.9,397.1l2.7,2.1l-7.2-1.3   l-2.3-2.1L-223.9,397.1z M-231.3,395.9l2.2,2.1l-7.3,3.7l-1.7-2.5L-231.3,395.9z M-246.2,403.4l7.4-3.7l1.7,2.5l-8,4.1   L-246.2,403.4z M-245,406.5l8-4.1l1.9,2.8l-8.6,4.5L-245,406.5z M-243.5,410l8.7-4.6l2.3,3.3l-9.5,5.2L-243.5,410z M-241.8,414.2   l9.5-5.1l2.8,4l-10.4,5.8L-241.8,414.2z M-239.7,419.4l10.5-5.8l3.4,5l-11.5,6.6L-239.7,419.4z M-233.9,433.7l-3.2-7.9l11.6-6.7   l4.6,6.7L-233.9,433.7z M-219.8,425.1l-4.7-6.6l10.4-6l5.8,5.6L-219.8,425.1z M-191.4,405.8l7.5-3.6l6.6,3l-8,4L-191.4,405.8z    M-186.3,419.2l-7.3-5l8.2-4.2l7.9,4.4L-186.3,419.2z M-184.6,409.6l8-4.1l8.5,3.8l-8.6,4.7L-184.6,409.6z"/></g><g><path d="M-194.3,397.2c3.7-14.6,15.8-23.9,28.6-22.1c-14.7-8.7-32.5,0.3-37.3,19c-1.4-0.5-2.9-1-4.3-1.6   c1.6,6.2,3.1,12.4,4.7,18.6c4.2-4.1,8.4-8.2,12.6-12.4C-191.4,398.2-192.9,397.7-194.3,397.2z"/></g><text x="-255" y="462" fill="#000000" font-size="5px" font-weight="bold" font-family="'Helvetica Neue', Helvetica, Arial-Unicode, Arial, Sans-serif"></text><text x="-255" y="467" fill="#000000" font-size="5px" font-weight="bold" font-family="'Helvetica Neue', Helvetica, Arial-Unicode, Arial, Sans-serif"></text></svg>