<svg xmlns="http://www.w3.org/2000/svg" xmlns:xlink="http://www.w3.org/1999/xlink" version="1.1" x="0px" y="0px" viewBox="-255 347 100 125" style="enable-background:new -255 347 100 100;" xml:space="preserve"><g><path d="M-194.8,394.8c-0.6,0.5-1.2,1.1-1.8,1.7l0.9,0.4l-2,0.9c-0.2,0.2-0.3,0.4-0.4,0.6l2.9-1.3l4.8,2.2l-7,3.2   l-2.6-1.4c-0.1,0.2-0.2,0.3-0.3,0.5l2.1,1.2l-3.3,1.5c-0.1,0.2-0.1,0.4-0.2,0.5l3.9-1.8l5.1,2.9l-7.6,3.6l-2.3-1.6   c0,0.2-0.1,0.4-0.1,0.6l1.6,1.2l-1.8-0.2c0,0.1,0,0.2,0,0.3l2.3,0.3l5.6,3.9l-7.8-1c0,0.1,0,0.2,0,0.4l8.4,0.9l7.2,5.1l-8.8-0.7   l-6.7-5.3c0,0.2,0,0.4,0.1,0.6l5.7,4.6l-10.3-0.8l-5.9-5.6l4.3,0.5c-0.1-0.1-0.1-0.3-0.2-0.4l-4.6-0.5l-4.5-4.2l7.9,1   c0-0.1-0.1-0.2-0.1-0.3l-8.2-1.1l-3.6-3.4l8.3,1.2l3.4,2.7c0-0.2-0.1-0.4-0.1-0.6l-2.6-2l2.3,0.3c0-0.1,0-0.2,0-0.2l-2.6-0.4   l-3.6-2.7l6,1c0-0.1,0-0.1,0-0.2l-6.3-1l-3-2.4l6.7,1.2l2.7,1.9c0-0.2,0-0.3,0-0.5l-2.1-1.5l2.3-1c0-0.1,0-0.2,0-0.3l-2.6,1.1   l-3.1-2.1l6-2.4l0.4,0.2c0.2-0.7,0.4-1.3,0.6-1.9l-8.4,3.4l-14-2.7l-18.2,9l11.3,38.1l34.1-21.2l21.6,1.3l23-12.8L-194.8,394.8z    M-214.6,412.1l-10.2,5.9l-3.5-4.9l9.4-5.2L-214.6,412.1z M-219.3,407.5l-9.3,5.2l-2.8-4l8.6-4.6L-219.3,407.5z M-226.2,400.9   l3,2.9l-8.5,4.6l-2.4-3.4L-226.2,400.9z M-234.3,404.8l-2-2.8l7.3-3.8l2.5,2.4L-234.3,404.8z M-214.2,404.8l-8.2-1.2l-3-2.8   l7.8,1.3L-214.2,404.8z M-218,401.8l-7.7-1.3l-2.5-2.4l7.3,1.3L-218,401.8z M-216.9,398.4l3,2.1l-6.6-1.2l-2.7-2.1L-216.9,398.4z    M-223.9,397.1l2.7,2.1l-7.2-1.3l-2.3-2.1L-223.9,397.1z M-231.3,395.9l2.2,2.1l-7.3,3.7l-1.7-2.5L-231.3,395.9z M-246.2,403.4   l7.4-3.7l1.7,2.5l-8,4.1L-246.2,403.4z M-245,406.5l8-4.1l1.9,2.8l-8.6,4.5L-245,406.5z M-243.5,410l8.7-4.6l2.3,3.3l-9.5,5.2   L-243.5,410z M-241.8,414.2l9.5-5.1l2.8,4l-10.4,5.8L-241.8,414.2z M-239.7,419.4l10.5-5.8l3.4,5l-11.5,6.6L-239.7,419.4z    M-233.9,433.7l-3.2-7.9l11.6-6.7l4.6,6.7L-233.9,433.7z M-219.8,425.1l-4.7-6.6l10.4-6l5.8,5.6L-219.8,425.1z M-177.3,405.2l-8,4   l-6.2-3.4l7.5-3.6L-177.3,405.2z M-197.1,402.7l7.1-3.2l5.6,2.5l-7.6,3.5L-197.1,402.7z M-199.8,409.8l7.7-3.7l6.1,3.5l-8.2,4.1   L-199.8,409.8z M-186.3,419.2l-7.3-5l8.2-4.2l7.9,4.4L-186.3,419.2z M-184.6,409.6l8-4.1l8.5,3.8l-8.6,4.7L-184.6,409.6z"/></g><g><path d="M-183,385.9c-14.7,3.8-24,15.9-22.1,28.7c-8.7-14.7,0.3-32.5,19-37.3c-0.5-1.4-1-2.9-1.6-4.3   c6.2,1.6,12.4,3.1,18.6,4.7c-4.1,4.2-8.2,8.4-12.4,12.6C-182,388.8-182.5,387.4-183,385.9z"/></g><text x="-255" y="462" fill="#000000" font-size="5px" font-weight="bold" font-family="'Helvetica Neue', Helvetica, Arial-Unicode, Arial, Sans-serif"></text><text x="-255" y="467" fill="#000000" font-size="5px" font-weight="bold" font-family="'Helvetica Neue', Helvetica, Arial-Unicode, Arial, Sans-serif"></text></svg>